<svg xmlns="http://www.w3.org/2000/svg" xmlns:xlink="http://www.w3.org/1999/xlink" xmlns:xodm="http://www.corel.com/coreldraw/odm/2003" xml:space="preserve" width="73.8404mm" height="11.0977mm" style="shape-rendering:geometricPrecision; text-rendering:geometricPrecision; image-rendering:optimizeQuality; fill-rule:evenodd; clip-rule:evenodd" viewBox="0 0 43035.33 6467.91">
 <defs>
  <style type="text/css">
   <![CDATA[
    .fil0 {fill:#586472}
   ]]>
  </style>
 </defs>
 <g id="Layer_x0020_1">
  <metadata id="CorelCorpID_0Corel-Layer"></metadata>
  <path class="fil0" d="M1679.15 4089.03c-20.75,-20.69 -64.81,-67.32 -132.18,-139.88 -67.37,-72.62 -111.43,-119.19 -132.12,-139.93 -51.81,-0.06 -77.75,46.63 -77.75,139.93 20.75,-0.06 77.75,23.31 171,70 93.31,46.63 150.31,69.94 171.06,69.88zm10743.45 -419.74l0 -46.68c0,-145.06 -62.19,-217.62 -186.56,-217.62 -62.19,-0.06 -93.25,15.56 -93.25,46.68 0,41.38 36.25,88.06 108.81,139.93 72.56,51.7 129.56,77.75 171,77.69zm5021.95 -62.19l-46.68 0c-51.81,0 -129.5,33.75 -233.18,101.06 -103.68,67.32 -155.5,116.62 -155.5,147.69l46.68 15.5c41.44,10.43 77.75,15.62 108.81,15.62 176.19,-0.12 269.44,-67.37 279.87,-202.12l0 -77.75zm31.12 -1694.65c10.32,-114.17 10.32,-186.62 0,-217.74 -41.55,20.63 -88.12,72.62 -139.93,155.55 20.69,10.26 67.32,31.06 139.93,62.19zm342 46.63c-31.06,-103.74 -98.44,-171.06 -202.06,-202.18 -31.12,82.93 -36.31,139.93 -15.62,171.06 31.12,20.69 103.68,31.12 217.68,31.12zm3404.98 2083.33c-10.37,-10.43 -44.06,-46.63 -101.06,-108.75 -57.06,-62.3 -90.69,-103.68 -101.12,-124.43 -51.75,-0.06 -77.69,46.63 -77.69,139.93 10.37,-0.06 57.06,15.56 139.93,46.63 82.88,31.01 129.56,46.68 139.93,46.63zm-19077.07 948.47c-41.5,165.87 -139.93,290.18 -295.43,373.12 -290.18,134.69 -689.24,373.12 -1197.16,715.17 51.81,-134.75 134.81,-248.75 248.8,-342.05 321.31,-228 735.92,-476.74 1243.79,-746.24zm-388.68 -2954.12c0,82.93 -36.31,181.49 -108.87,295.49l-31.06 -0.12c20.75,-113.88 -5.19,-170.94 -77.75,-170.94 -82.93,-0.12 -129.56,145.12 -139.93,435.3 0,176.19 0,357.62 0,544.17l-31.12 -0.12c0,-93.19 -41.44,-207.13 -124.31,-341.94 -82.93,-134.81 -171.06,-202.12 -264.37,-202.12 0,114.06 -67.37,171.06 -202.12,171.06 -134.75,-0.12 -202.12,-82.93 -202.12,-248.8 0,-145.06 82.93,-217.62 248.8,-217.62 248.75,-0.12 419.8,139.88 513.05,419.74 0,-186.56 0,-367.99 0,-544.17 20.75,-228.06 98.44,-342.05 233.18,-342.05 124.43,-0.06 186.62,67.43 186.62,202.12zm6809.91 1041.67c-31.12,134.86 -98.5,253.99 -202.12,357.62 0,0 -20.75,0 -62.19,0 -31.12,-10.43 -67.43,-15.5 -108.87,-15.5 -342.05,0 -715.17,108.87 -1119.41,326.49 -404.3,217.68 -694.48,326.55 -870.67,326.55 -186.62,-0.06 -352.43,-82.93 -497.55,-248.8 -621.86,476.8 -1419.97,715.17 -2394.38,715.17 -601.17,0 -1041.67,-62.19 -1321.53,-186.5 -20.69,-0.06 -54.43,46.57 -101.06,139.88 -46.63,93.25 -85.5,139.93 -116.62,139.93 -41.44,-0.12 -124.37,-36.25 -248.75,-108.81 -155.5,-72.62 -248.75,-108.81 -279.81,-108.81 -103.68,238.2 -259.18,414.56 -466.49,528.56 -279.87,155.38 -538.99,233.24 -777.36,233.24l0 -62.24c611.55,-269.44 979.48,-549.3 1103.91,-839.49 0,-507.98 119.19,-761.86 357.56,-761.86 -10.37,-0.12 72.56,54.38 248.75,163.25 176.19,108.81 373.18,199.5 590.86,272.06 321.31,103.68 673.73,155.5 1057.23,155.5 424.93,0 870.67,-57 1337.1,-171 570.11,-145.24 969.11,-336.93 1197.16,-575.3 10.37,-0.06 25.94,15.56 46.68,46.63 -10.43,31.06 -20.75,72.62 -31.12,124.43 93.31,93.19 207.31,139.93 342.05,139.93 176.19,-0.06 502.68,-134.81 979.48,-404.3 -321.31,-114.06 -538.99,-171 -652.99,-171 -41.44,-0.12 -67.32,15.56 -77.75,46.63l-435.3 -15.62 0 -31.12c0,-290.18 171,-435.25 513.05,-435.25 103.68,-0.06 264.31,46.68 481.99,139.93 269.44,114 430.18,176.19 481.99,186.62 217.68,62.13 559.74,93.25 1026.16,93.19zm-2503.19 1725.78c0,103.62 -36.25,228.11 -108.87,373.24 -103.62,0 -217.62,-31.12 -342.05,-93.31 -31.06,20.69 -77.75,98.5 -139.93,233.24 -259.12,-72.62 -388.62,-160.62 -388.62,-264.31 0,-31.18 36.25,-119.24 108.75,-264.31 114.06,-0.06 233.3,31.06 357.62,93.25 31.12,-51.87 93.31,-134.75 186.62,-248.75l326.49 170.94zm-1974.58 -1865.71c51.81,72.5 77.75,155.55 77.75,248.86 0,228 -82.93,342.05 -248.75,342.05 -176.24,-0.06 -264.37,-93.37 -264.37,-279.87 0,-134.92 41.5,-279.87 124.43,-435.36 72.56,-124.43 150.31,-248.75 233.18,-373.18l31.12 -0.06c-114,393.81 -171.06,596.05 -171.06,606.48 0,103.57 36.25,155.44 108.87,155.44 93.25,-0.06 124.37,-72.5 93.25,-217.62l15.56 -46.74zm-155.5 -2254.39c-31.06,424.99 -399.05,730.73 -1103.91,917.35l-62.19 -15.62c248.8,-93.19 502.74,-274.62 761.86,-544.12 0,-93.25 -93.25,-139.93 -279.87,-139.93 -176.19,-0.06 -342.05,46.68 -497.49,139.93 103.62,-248.8 191.69,-401.62 264.31,-458.62 72.56,-57.12 196.93,-85.56 373.12,-85.56 228.06,0 409.43,62.19 544.17,186.56zm3949.16 3886.97c-20.75,51.81 -90.69,114 -209.87,186.56 -119.24,72.5 -235.87,108.87 -349.86,108.87 -124.37,-0.06 -186.56,-51.81 -186.56,-155.5 0,-83.05 51.81,-176.19 155.44,-279.87l139.93 -124.49c-41.44,-30.95 -88.06,-46.57 -139.93,-46.57 -62.19,0 -124.31,5.25 -186.5,15.62 51.75,-134.86 150.25,-202.12 295.37,-202.12 62.19,-0.06 134.75,25.94 217.68,77.69 -20.75,41.5 -62.24,98.5 -124.43,171.06 -134.69,155.38 -202.12,248.75 -202.12,279.81 0,72.56 46.68,108.87 139.93,108.87 103.68,0 253.93,-46.63 450.92,-139.93zm-202.12 -3824.79c0,113.94 -62.19,266.93 -186.62,458.68 -124.37,191.8 -269.44,329.17 -435.3,412.05 186.56,-248.86 279.87,-430.18 279.87,-544.17 -2000.46,414.56 -3700.35,1041.67 -5099.64,1881.27 51.81,-207.37 103.62,-326.49 155.44,-357.62 538.99,-362.8 1373.35,-741.11 2503.19,-1134.98 1077.98,-362.8 2005.64,-601.17 2783.06,-715.23zm6809.91 2161.08c-103.68,72.56 -233.24,155.55 -388.74,248.86 -238.37,-51.87 -414.56,-77.75 -528.56,-77.75 -362.8,-0.06 -663.42,62.19 -901.79,186.56 0,559.68 -93.31,839.6 -279.87,839.6 -145.12,0 -316.12,-67.37 -513.11,-202.12 -41.44,134.69 -111.43,240.99 -209.87,318.74 -98.5,77.63 -215.06,116.56 -349.81,116.56 0,528.61 -295.43,958.85 -886.23,1290.47 -456.11,259.12 -1062.41,466.49 -1819.08,621.92 -684.11,145 -1337.1,217.68 -1959.02,217.68 -1990.08,-0.06 -3394.61,-554.55 -4213.41,-1663.65l15.5 -62.24c1088.35,829.23 2518.75,1243.9 4291.21,1243.9 1129.79,-0.06 2150.76,-160.68 3062.93,-481.99 881.04,-300.73 1321.48,-621.92 1321.48,-963.98 0,-93.37 -33.69,-189.12 -101.06,-287.62 -67.32,-98.44 -101,-163.25 -101,-194.37 0,-51.87 41.44,-165.81 124.31,-342.05 165.87,134.75 274.74,202.12 326.55,202.12 196.93,-0.06 347.18,-98.44 450.92,-295.37 155.44,-279.93 233.18,-419.8 233.18,-419.8 238.37,-207.31 611.49,-347.18 1119.41,-419.8 -331.68,-134.75 -554.55,-202.12 -668.55,-202.12 -31.06,0 -51.81,20.75 -62.19,62.24l-497.55 -0.06 0 -77.69c0,-310.99 186.62,-466.49 559.74,-466.49 155.5,-0.06 367.99,77.75 637.43,233.3 414.67,217.57 860.29,409.37 1337.15,575.12zm-5068.57 342.11c0,259.06 -77.75,497.55 -233.18,715.23 -155.55,217.62 -233.24,336.87 -233.24,357.62 0,321.25 -82.88,621.86 -248.75,901.73 -196.99,321.25 -450.92,481.99 -761.86,481.99 -279.87,-0.12 -544.17,-41.44 -792.98,-124.37l31.12 -46.68c217.68,0 424.93,-25.88 621.92,-77.75 196.93,-51.87 417.18,-196.88 660.74,-435.3 243.62,-238.43 365.37,-440.49 365.37,-606.3 0,-93.37 -46.57,-186.62 -139.93,-279.93 -93.25,-93.31 -139.93,-139.93 -139.93,-139.93 0,-51.93 31.12,-176.19 93.37,-373.12 93.25,62.13 196.93,93.25 310.93,93.25 145.12,-0.12 243.56,-57 295.37,-171 -31.06,-259.24 -108.81,-663.36 -233.18,-1212.66 -114,-476.92 -181.43,-735.92 -202.12,-777.48 -114,-269.49 -171,-435.3 -171,-497.49 0,-82.88 41.44,-207.25 124.37,-373.12 93.25,103.57 228,274.62 404.18,513.05 -10.32,31.01 -31.06,82.93 -62.19,155.5 -31.06,72.5 -46.63,124.37 -46.63,155.5 0,-10.49 59.62,243.56 178.81,761.8 119.24,518.3 178.81,844.73 178.81,979.48zm590.8 1259.35l-295.43 295.37 -295.37 -310.99 279.87 -295.37 310.93 310.99zm-1601.4 -2596.39c0,269.32 -77.75,404.18 -233.24,404.18 -82.93,-0.12 -150.31,-20.69 -202.12,-62.13 -82.88,124.26 -150.31,186.5 -202.12,186.5 -145.06,-0.06 -217.68,-88.12 -217.68,-264.31 0,-62.19 10.43,-124.31 31.12,-186.5l62.19 -31.12c0,124.31 51.87,186.56 155.5,186.56 93.25,-0.06 139.93,-93.25 139.93,-279.87l77.75 -77.75c0,134.69 46.63,202.18 139.93,202.18 72.5,-0.06 119.19,-93.37 139.93,-279.87l77.69 -62.24c20.75,82.88 31.12,171.06 31.12,264.37zm4602.09 2751.94c-31.06,165.75 -129.5,290.24 -295.37,373.12 -279.87,145.12 -678.92,383.49 -1197.16,715.23 51.81,-134.92 134.75,-248.8 248.75,-342.05 321.36,-228.06 735.92,-476.86 1243.79,-746.3zm-2751.94 -1150.65c0,176.3 -36.25,383.67 -108.81,621.98l-652.99 -2969.56c0,-228.11 41.44,-388.74 124.37,-481.99 31.06,51.75 145.06,518.24 342.05,1399.28 196.93,880.98 295.37,1357.84 295.37,1430.29zm1321.59 -575.24c0,217.68 -20.75,399.17 -62.19,544.23l-31.06 -0.06c0,-476.86 -98.5,-813.61 -295.49,-1010.54l0 -404.24c259.18,269.44 388.74,559.74 388.74,870.61zm2534.26 1523.6c-20.69,51.81 -90.63,114.17 -209.87,186.73 -119.24,72.44 -235.87,108.81 -349.86,108.81 -134.69,-0.06 -202.12,-51.81 -202.12,-155.5 0,-82.88 57.06,-176.19 171.06,-279.81l139.93 -124.49c-41.44,-31.12 -88.12,-46.57 -139.93,-46.57 -72.56,-0.06 -134.81,5.19 -186.56,15.56 51.75,-134.86 150.31,-202.12 295.37,-202.12 62.19,0 129.62,25.94 202.12,77.75 -10.32,31.06 -51.81,88.12 -124.31,171.06 -124.43,155.38 -186.62,248.69 -186.62,279.81 0,72.5 41.5,108.81 124.37,108.81 114.06,-0.12 269.49,-46.57 466.43,-140.05zm-3342.74 -3482.61c51.81,82.93 77.69,171.11 77.69,264.37 0,217.68 -82.88,326.55 -248.75,326.55 -176.19,-0.06 -264.31,-93.31 -264.31,-279.87 0,-134.81 38.93,-272.12 116.62,-411.99 77.75,-139.99 158.12,-272.12 240.99,-396.49l31.12 0c-114,393.81 -171.06,595.99 -171.06,606.36 0,103.62 36.25,155.44 108.87,155.44 93.25,-0.12 124.37,-72.56 93.25,-217.62l15.56 -46.74zm5332.88 4182.34c62.19,82.93 93.25,171.11 93.25,264.37 0,227.94 -82.88,342.05 -248.75,342.05 -186.56,-0.06 -279.87,-98.44 -279.87,-295.37 0,-134.92 41.5,-269.55 124.37,-404.24 82.93,-134.86 160.68,-269.49 233.24,-404.24l31.06 15.5c-114,393.81 -171,595.99 -171,606.36 0,103.62 36.25,155.5 108.81,155.5 93.31,-0.06 124.37,-77.75 93.31,-233.18l15.56 -46.74zm-2114.51 -4586.58c0,114.06 -62.19,266.99 -186.56,458.73 -124.37,191.75 -264.31,334.3 -419.8,427.55 176.19,-259.18 264.31,-445.74 264.31,-559.74 -1057.29,217.62 -2145.58,647.86 -3264.99,1290.53 51.81,-197.05 103.62,-316.12 155.44,-357.67 932.85,-632.3 2083.39,-1052.04 3451.61,-1259.41zm1414.84 2674.25c0,259.06 -75.12,497.55 -225.43,715.23 -150.31,217.62 -225.49,336.87 -225.49,357.62 0,331.51 -82.88,642.61 -248.69,932.85 -186.62,341.94 -430.18,513.05 -730.79,513.05 -176.19,-0.06 -450.87,-62.19 -824.04,-186.56l15.62 -46.68c228.06,0 445.68,-31.06 652.99,-93.25 176.19,-41.55 386.06,-181.37 629.67,-419.8 243.56,-238.43 365.37,-440.49 365.37,-606.3 0,-93.37 -46.63,-186.62 -139.93,-279.93 -93.31,-93.31 -139.93,-139.93 -139.93,-139.93 0,-51.93 36.25,-176.19 108.81,-373.12 82.93,62.13 181.43,93.25 295.43,93.25 155.44,-0.12 253.93,-57 295.37,-171 -31.06,-259.24 -108.81,-663.36 -233.18,-1212.66 -103.68,-476.92 -165.87,-735.92 -186.56,-777.48 -124.37,-269.49 -186.56,-435.3 -186.56,-497.49 0,-82.88 41.44,-207.25 124.31,-373.12 93.37,103.57 222.87,274.62 388.74,513.05 0,31.01 -12.94,82.93 -38.87,155.5 -25.88,72.5 -38.87,124.37 -38.87,155.5 0,-10.49 57,243.56 171,761.8 114,518.3 171.06,844.73 171.06,979.48zm2705.31 1570.34c-31.12,165.87 -129.56,290.24 -295.43,373.18 -279.87,134.63 -678.92,373.12 -1197.16,715.17 51.81,-134.81 134.75,-248.75 248.8,-342.05 321.31,-228.17 735.86,-476.8 1243.79,-746.3zm-3560.42 -3062.93c0,279.87 -77.75,419.8 -233.24,419.8 -82.88,-0.12 -145.06,-25.94 -186.56,-77.75 -93.31,124.37 -165.81,186.62 -217.68,186.62 -134.75,-0.06 -202.06,-82.93 -202.06,-248.8 0,-72.5 10.32,-134.69 31.06,-186.5l46.63 -31.18c0,114.06 51.81,171.11 155.5,171.11 103.62,-0.06 155.44,-88.12 155.44,-264.37l77.75 -93.25c0,145 41.5,217.68 124.37,217.68 82.93,-0.06 134.75,-93.37 155.5,-279.87l62.19 -62.3c20.75,72.56 31.12,155.55 31.12,248.8zm1694.71 1756.84c0,176.3 -31.12,383.67 -93.31,621.98l-668.55 -2969.56c0,-228.11 46.68,-388.74 139.93,-481.99 31.06,51.75 142.56,518.24 334.3,1399.28 191.69,880.98 287.62,1357.84 287.62,1430.29zm3311.62 202.06c0,497.67 -155.44,746.41 -466.37,746.41 -238.43,-0.12 -404.3,-103.62 -497.55,-310.93 -72.56,341.94 -264.31,513.11 -575.3,513.11 -165.87,0 -295.37,-67.37 -388.68,-202.18 -93.31,-134.69 -139.93,-285 -139.93,-450.81 -176.19,300.5 -352.43,450.81 -528.61,450.81 -207.31,-0.12 -310.93,-129.5 -310.93,-388.62 0,-186.73 132.18,-355.05 396.43,-505.36 264.31,-150.37 396.49,-235.81 396.49,-256.5 20.75,-93.37 31.12,-176.19 31.12,-248.8l139.93 -202.12c31.06,82.93 46.57,181.43 46.57,295.43 0,62.13 -7.75,152.87 -23.25,272.06 -15.56,119.13 -23.31,209.93 -23.31,272.12 0,300.5 150.25,450.87 450.87,450.87 290.24,-0.06 435.3,-139.88 435.3,-419.74 0,-93.31 -23.31,-241.05 -70,-443.17 -46.57,-202.18 -69.94,-349.81 -69.94,-443.06 0,-103.74 46.68,-248.8 139.93,-435.36 72.56,300.62 145.12,601.17 217.68,901.79 103.62,404.07 253.93,606.3 450.87,606.3 124.43,-0.06 186.62,-46.57 186.62,-139.93 0,-165.93 -62.19,-409.37 -186.62,-730.68 -124.37,-321.36 -186.56,-497.55 -186.56,-528.67 0,-62.3 20.75,-145.06 62.19,-248.75 41.44,-103.68 62.19,-181.37 62.19,-233.24 300.62,663.36 450.87,1223.1 450.87,1679.03zm-1648.03 -1787.85c-41.44,196.82 -165.87,269.49 -373.18,217.68 -82.88,186.5 -251.37,339.43 -505.3,458.68 -253.93,119.07 -505.24,178.75 -754.05,178.75l-31.06 -31.12c82.93,0 269.44,-72.5 559.68,-217.57 331.68,-155.61 538.99,-290.24 621.92,-404.3 -124.37,-51.81 -186.56,-119.24 -186.56,-202.12 0,-51.81 12.94,-111.43 38.87,-178.81 25.94,-67.32 33.69,-111.43 23.31,-132.12 -20.75,-10.49 -31.06,-31.12 -31.06,-62.24 0,-62.13 67.32,-93.25 202.12,-93.25 82.88,0 181.37,54.43 295.37,163.25 114,108.87 160.68,209.87 139.93,303.18zm3731.42 2954c-31.06,165.81 -129.5,285.11 -295.37,357.67 -279.87,145.06 -678.92,383.49 -1197.16,715.23 62.19,-124.43 145.06,-238.43 248.75,-342.05 321.36,-228.11 735.86,-471.67 1243.79,-730.85zm-4788.65 -4057.91c62.13,82.93 93.25,171.06 93.25,264.37 0,227.94 -82.93,342.05 -248.75,342.05 -176.24,-0.06 -264.31,-98.5 -264.31,-295.43 0,-134.75 38.87,-272.06 116.56,-411.99 77.75,-140.05 158.12,-272.12 241.05,-396.49l15.5 15.56c-103.62,393.81 -155.44,595.99 -155.44,606.36 0,103.62 31.06,155.44 93.25,155.44 103.68,0 139.93,-77.69 108.87,-233.18l0 -46.68zm2161.14 839.49c0,279.93 -82.93,419.92 -248.8,419.92 -72.56,-0.06 -134.75,-25.94 -186.56,-77.75 -93.31,124.26 -160.62,186.62 -202.12,186.62 -145.12,0 -217.68,-82.93 -217.68,-248.8 0,-72.62 10.37,-134.75 31.12,-186.62l62.19 -31.12c0,114.06 51.81,171.06 155.5,171.06 93.25,-0.12 139.93,-88.06 139.93,-264.25l77.69 -93.37c0,145.18 46.68,217.68 139.93,217.68 72.62,0 119.19,-93.25 139.93,-279.81l62.19 -77.81c31.06,82.93 46.68,171.11 46.68,264.25zm1228.23 1850.21c0,176.3 -31.06,383.67 -93.25,621.98l-668.61 -2969.56c0,-228.11 46.68,-388.74 139.93,-481.99 31.12,51.75 142.56,518.24 334.3,1399.28 191.75,880.98 287.62,1357.84 287.62,1430.29zm-1585.9 -2643.07c0,228.06 -25.88,409.49 -77.69,544.17l-15.56 -0.06c0,-476.74 -103.68,-813.55 -310.93,-1010.49l15.56 -404.3c259.12,269.49 388.62,559.74 388.62,870.67zm2829.74 808.48c0,72.56 -36.31,165.93 -108.81,279.93l-31.12 0c20.75,-103.74 -5.13,-155.5 -77.75,-155.5 -82.93,-0.06 -124.37,139.93 -124.37,419.8 -10.43,186.5 -15.56,367.99 -15.56,544.17l-31.06 -0.12c0,-82.88 -38.87,-191.63 -116.62,-326.43 -77.75,-134.75 -168.43,-202.12 -272.12,-202.12 0,103.68 -67.37,155.55 -202.12,155.55 -124.37,-0.06 -186.56,-77.81 -186.56,-233.24 0,-145.12 82.93,-217.68 248.8,-217.68 238.37,-0.06 404.24,134.81 497.49,404.24 0,-176.24 0,-352.43 0,-528.61 20.75,-228.11 98.44,-342.05 233.18,-342.05 124.43,-0.06 186.62,67.37 186.62,202.06zm20887.82 2012.05c-134.51,77.92 -281.97,-63.35 -364.84,-146.29 -51.87,82.88 -98.5,165.87 -139.93,248.8 -103.68,134.63 -222.87,202.06 -357.67,202.06 -114,-0.12 -222.81,-36.19 -326.43,-108.81 -155.5,165.87 -342.05,248.75 -559.74,248.75 -186.56,-0.12 -399.11,-88.06 -637.43,-264.25 -1067.66,342 -2461.7,632.24 -4182.28,870.61 -1959.08,269.49 -3938.78,404.24 -5939.3,404.24 -3472.3,-0.12 -6229.48,-248.75 -8271.32,-746.3 -20.75,0 -54.43,38.93 -101.12,116.62 -46.63,77.69 -85.5,116.62 -116.56,116.62 -41.5,-0.12 -132.18,-36.25 -272.12,-108.81 -139.93,-72.62 -225.43,-108.81 -256.56,-108.81 -103.62,238.2 -264.31,414.56 -481.99,528.56 -269.44,155.38 -523.43,233.24 -761.8,233.24l0 -62.24c611.49,-269.44 979.48,-549.3 1103.85,-839.49 0,-507.98 114,-761.86 342.05,-761.86 62.24,-0.12 158.12,59.56 287.68,178.75 129.5,119.19 240.94,194.37 334.24,225.43 1876.08,445.68 4721.33,668.61 8535.68,668.61 3949.16,-0.06 7400.65,-435.36 10354.77,-1306.03l0 93.19c-20.75,31.12 -67.37,88.18 -139.93,171.11 82.93,82.88 191.75,124.43 326.49,124.43 176.24,-0.06 419.8,-155.5 730.73,-466.49 10.37,36.25 20.75,72.62 31.06,108.87 0,10.26 -25.88,67.32 -77.75,171 51.87,51.75 114.06,77.75 186.62,77.75 228.06,-0.12 262.73,-186.56 366.42,-559.74 34.15,-17.13 55.43,-22.96 96.86,-29.02 13.99,83.46 24.48,187.2 16.61,252.42 238.2,-21.16 495.8,-169.89 656.25,-327.6 -144.48,-250.96 -457.98,-549.6 -714.12,-855.46 -249.04,-297.59 -139.7,-518.59 -50.94,-851.61 126.35,24.54 791.11,1031.47 1043.07,1772.4 -64.52,174.09 -129.15,348.17 -193.73,522.2 -155.67,107.88 -311.28,177 -466.84,207.13zm-2106.24 786.51c-62.19,321.42 -160.62,482.05 -295.43,482.05 -51.81,-0.12 -119.19,-20.69 -202.12,-62.19 -134.75,114 -228,171.06 -279.87,171.06 -20.69,-0.06 -57,-18.18 -108.81,-54.43 -51.81,-36.25 -93.25,-54.43 -124.37,-54.43 -114,-0.12 -367.99,114 -761.86,342.05 -435.3,248.69 -792.92,404.24 -1072.67,466.43l-15.56 -46.68c269.38,-72.62 637.37,-264.31 1103.79,-575.24 393.98,-269.49 678.98,-404.24 855.17,-404.24 31.06,-0.06 69.94,15.56 116.56,46.68 46.68,31.06 85.56,46.63 116.62,46.63 10.37,-0.06 93.25,-57 248.8,-171 10.32,0 33.69,10.37 69.94,31.12 36.25,20.57 70,31.06 101.06,31.06 41.44,-0.06 69.94,-33.69 85.5,-101.06 15.56,-67.43 69.94,-116.62 163.25,-147.8zm1756.9 -15.62c-31.12,165.87 -129.5,285.17 -295.37,357.73 -279.87,145 -678.98,383.49 -1197.22,715.23 51.87,-124.49 134.75,-238.37 248.8,-342.05 321.31,-228.17 735.86,-471.61 1243.79,-730.91zm855.11 -248.63l-295.37 295.37 -310.99 -310.99 295.43 -295.37 310.93 310.99zm-1788.02 -2627.62c-31.06,424.93 -404.18,730.79 -1119.41,917.41l-46.63 -15.68c248.75,-93.19 502.68,-274.56 761.86,-544.06 0,-93.31 -98.44,-139.93 -295.43,-139.93 -165.87,-0.06 -326.49,41.5 -481.99,124.37 103.68,-238.49 191.8,-386.06 264.31,-443.11 72.62,-57.12 196.99,-85.5 373.18,-85.5 217.68,-0.06 399.05,62.19 544.12,186.5z"></path>
 </g>
</svg>